<svg width="766" height="579" viewBox="0 0 766 579" fill="none" xmlns="http://www.w3.org/2000/svg">
<path d="M680.031 535.723C727.511 535.723 766 497.233 766 449.754C766 402.275 727.511 363.785 680.031 363.785C632.552 363.785 594.062 402.275 594.062 449.754C594.062 497.233 632.552 535.723 680.031 535.723Z" fill="#FAF7F5"/>
<path d="M92.4199 268.574C139.899 268.574 178.389 230.084 178.389 182.605C178.389 135.126 139.899 96.6362 92.4199 96.6362C44.9406 96.6362 6.45105 135.126 6.45105 182.605C6.45105 230.084 44.9406 268.574 92.4199 268.574Z" fill="#FAF7F5"/>
<path d="M669.037 69.4512V391.191C669.037 406.96 655.929 419.7 639.725 419.7H116.468C100.325 419.7 87.217 406.994 87.217 391.191V69.4512C87.217 53.6819 100.325 40.8818 116.468 40.8818H639.725C655.929 40.8818 669.037 53.6819 669.037 69.4512Z" fill="#E6DBD4"/>
<path d="M669.859 122.21V443.949C669.859 459.719 656.725 472.458 640.487 472.458H116.248C100.071 472.458 86.9361 459.752 86.9361 443.949V122.21C86.9361 106.44 100.071 93.6403 116.248 93.6403H640.474C656.725 93.6403 669.859 106.467 669.859 122.21Z" fill="white"/>
<path d="M136.678 119.702V254.008H328.679V230.742L311.151 186.858L293.857 208.874L265.675 137.237L239.366 196.91L227.021 167.103L214.582 195.258L195.476 147.288L174.276 169.484L158.955 134.147L136.678 119.702Z" fill="#E6DBD4"/>
<path d="M359.455 272.453H119.277C119.1 272.453 118.93 272.382 118.804 272.257C118.679 272.132 118.609 271.961 118.609 271.784V113.883C118.609 113.706 118.679 113.536 118.804 113.411C118.93 113.285 119.1 113.215 119.277 113.215C119.455 113.215 119.625 113.285 119.75 113.411C119.876 113.536 119.946 113.706 119.946 113.883V271.115H359.455C359.633 271.115 359.803 271.186 359.928 271.311C360.053 271.437 360.124 271.607 360.124 271.784C360.124 271.961 360.053 272.132 359.928 272.257C359.803 272.382 359.633 272.453 359.455 272.453Z" fill="#E0CABC"/>
<path d="M640.474 473.127H116.248C99.7161 473.127 86.2673 460.04 86.2673 443.949V122.21C86.2673 106.092 99.7161 92.9714 116.248 92.9714H640.474C657.039 92.9714 670.515 106.092 670.515 122.21V443.949C670.528 460.04 657.052 473.127 640.474 473.127ZM116.248 94.309C100.452 94.309 87.6049 106.828 87.6049 122.21V443.949C87.6049 459.331 100.452 471.79 116.248 471.79H640.474C656.304 471.79 669.177 459.297 669.177 443.949V122.21C669.177 106.828 656.304 94.309 640.474 94.309H116.248Z" fill="#264373"/>
<path d="M194.038 72.2132C193.967 71.26 193.62 70.3481 193.039 69.5894C192.458 68.8307 191.668 68.2581 190.766 67.9419C189.864 67.6258 188.889 67.5798 187.962 67.8097C187.034 68.0396 186.194 68.5353 185.544 69.2359C184.894 69.9366 184.462 70.8118 184.303 71.7541C184.143 72.6964 184.262 73.6649 184.645 74.5406C185.028 75.4163 185.658 76.1612 186.458 76.6839C187.258 77.2066 188.193 77.4843 189.149 77.483C190.496 77.4308 191.766 76.8466 192.683 75.8587C193.599 74.8708 194.087 73.5598 194.038 72.2132ZM169.254 72.2132C169.183 71.26 168.836 70.3481 168.255 69.5894C167.674 68.8307 166.884 68.2581 165.982 67.9419C165.08 67.6258 164.105 67.5798 163.178 67.8097C162.25 68.0396 161.409 68.5353 160.759 69.2359C160.109 69.9366 159.678 70.8118 159.519 71.7541C159.359 72.6964 159.478 73.6649 159.861 74.5406C160.243 75.4163 160.874 76.1612 161.674 76.6839C162.474 77.2066 163.409 77.4843 164.365 77.483C165.711 77.4308 166.982 76.8466 167.899 75.8587C168.815 74.8708 169.302 73.5598 169.254 72.2132ZM144.469 72.2132C144.399 71.26 144.052 70.3481 143.471 69.5894C142.89 68.8307 142.1 68.2581 141.198 67.9419C140.296 67.6258 139.321 67.5798 138.393 67.8097C137.466 68.0396 136.625 68.5353 135.975 69.2359C135.325 69.9366 134.894 70.8118 134.734 71.7541C134.575 72.6964 134.693 73.6649 135.076 74.5406C135.459 75.4163 136.089 76.1612 136.89 76.6839C137.69 77.2066 138.625 77.4843 139.581 77.483C140.927 77.4308 142.198 76.8466 143.115 75.8587C144.031 74.8708 144.518 73.5598 144.469 72.2132ZM508.642 77.483H621.08C622.478 77.483 623.818 76.9278 624.806 75.9395C625.795 74.9512 626.35 73.6108 626.35 72.2132C626.35 70.8155 625.795 69.4751 624.806 68.4869C623.818 67.4986 622.478 66.9434 621.08 66.9434H508.642C507.244 66.9434 505.904 67.4986 504.915 68.4869C503.927 69.4751 503.372 70.8155 503.372 72.2132C503.372 73.6108 503.927 74.9512 504.915 75.9395C505.904 76.9278 507.244 77.483 508.642 77.483Z" fill="white"/>
<path d="M722.183 141.497H406.83V309.061H722.183V141.497Z" fill="#FFC6A3"/>
<path d="M639.217 138.654L640.34 144.974C666.957 152.812 641.009 180.565 637.605 197.706C636.278 206.517 638.229 215.509 643.089 222.978C655.655 242.439 696.85 258.924 714.827 239.51C723.521 230.147 728.028 211.489 713.248 199.973C698.255 188.296 681.87 196.763 675.464 188.845C667.659 181.742 694.189 154.263 676.948 132.127C663.881 115.335 639.611 127.827 639.217 138.654Z" fill="#28487D"/>
<path d="M634.402 139.905L634.77 143.884C637.15 143.443 640.34 144.981 640.34 144.981C640.34 144.981 640.207 139.296 639.297 138.019C637.623 138.533 635.988 139.164 634.402 139.905Z" fill="#FF6200"/>
<path d="M560.491 224.068C547.383 236.908 533.948 255.941 519.696 271.938C498.47 299.29 529.474 321.48 553.275 298.12C569.472 282.217 582.747 269.644 591.889 248.913C599.479 231.625 581.135 203.838 560.491 224.068Z" fill="#FFAD7A"/>
<path d="M579.176 196.649C564.777 201.605 529.24 241.456 527.721 255.172C527.541 256.824 559.742 298.146 559.742 298.146L604.395 261.826L579.176 196.649Z" fill="#FF9B5C"/>
<path d="M571.344 239.65L555.033 292.77L560.918 300.588L570.074 293.786L571.344 239.65Z" fill="#28487D"/>
<path d="M604.889 196.315C604.996 196.575 606.575 200.441 610.46 201.197C613.837 201.865 617.475 199.859 619.04 196.315C618.713 193.947 617.703 176.566 617.389 174.246L606.815 178.693C606.595 180.753 606.367 182.812 606.147 184.886C605.728 188.702 605.309 192.512 604.889 196.315Z" fill="#FFAD7A"/>
<path d="M606.294 183.802C610.875 191.031 616.813 178.833 616.486 176.479H606.715C606.488 178.546 606.521 181.736 606.294 183.802Z" fill="#28487D"/>
<path d="M566.469 306.82C567.767 318.544 591.554 319.814 606.508 320.644C623.361 320.577 644.266 322.369 659.948 318.925C662.851 317.902 664.911 206.105 649.248 196.375C642.561 192.235 619.06 191.46 619.06 191.46C619.06 191.46 605.264 201.029 605.13 191.567C594.985 190.283 579.483 195.291 574.367 199.545C561.888 209.89 565.453 305.376 566.469 306.82Z" fill="#FF9B5C"/>
<path d="M624.477 262.462C624.341 262.459 624.212 262.404 624.116 262.308L608.481 246.311L594.751 262.288C594.704 262.343 594.646 262.388 594.58 262.419C594.514 262.451 594.443 262.467 594.37 262.468C594.224 262.465 594.085 262.405 593.982 262.301L579.985 247.053L567.459 260.643C567.366 260.725 567.246 260.77 567.122 260.771C566.998 260.771 566.878 260.725 566.785 260.643C566.692 260.561 566.632 260.447 566.617 260.324C566.602 260.201 566.633 260.076 566.703 259.974L579.617 245.95C579.664 245.897 579.722 245.855 579.786 245.826C579.851 245.797 579.921 245.783 579.992 245.783C580.062 245.783 580.132 245.797 580.197 245.826C580.261 245.855 580.319 245.897 580.366 245.95L594.33 261.184L608.046 245.221C608.092 245.167 608.15 245.123 608.214 245.093C608.279 245.063 608.349 245.047 608.42 245.047C608.491 245.042 608.562 245.053 608.627 245.078C608.693 245.104 608.753 245.143 608.802 245.194L624.491 261.244L639.712 248.357C639.762 248.313 639.821 248.279 639.885 248.258C639.949 248.236 640.017 248.228 640.084 248.233C640.151 248.238 640.217 248.256 640.277 248.287C640.337 248.317 640.39 248.36 640.434 248.411C640.521 248.515 640.564 248.649 640.552 248.784C640.541 248.92 640.477 249.045 640.374 249.133L624.792 262.334C624.704 262.41 624.593 262.455 624.477 262.462ZM625.039 284.276C624.903 284.274 624.774 284.219 624.678 284.123L609.042 268.126L595.313 284.096C595.265 284.151 595.207 284.195 595.141 284.226C595.075 284.257 595.004 284.274 594.932 284.276C594.859 284.277 594.787 284.263 594.72 284.234C594.653 284.205 594.593 284.163 594.544 284.109L580.547 268.862L568.021 282.451C567.973 282.498 567.917 282.536 567.855 282.562C567.793 282.588 567.727 282.601 567.66 282.601C567.592 282.601 567.526 282.588 567.464 282.562C567.402 282.536 567.346 282.498 567.298 282.451C567.199 282.359 567.14 282.232 567.134 282.096C567.127 281.961 567.175 281.829 567.265 281.728L580.172 267.731C580.22 267.68 580.278 267.64 580.343 267.612C580.407 267.584 580.476 267.57 580.547 267.57C580.617 267.57 580.686 267.584 580.751 267.612C580.815 267.64 580.873 267.68 580.921 267.731L594.912 283.019L608.628 267.063C608.675 267.009 608.732 266.965 608.796 266.934C608.861 266.903 608.931 266.885 609.002 266.882C609.073 266.88 609.143 266.893 609.209 266.919C609.274 266.946 609.334 266.985 609.383 267.036L625.046 283.086L639.698 268.373C639.745 268.326 639.802 268.288 639.864 268.262C639.926 268.236 639.992 268.223 640.059 268.223C640.127 268.223 640.193 268.236 640.255 268.262C640.317 268.288 640.373 268.326 640.421 268.373C640.515 268.47 640.568 268.599 640.568 268.735C640.568 268.87 640.515 268.999 640.421 269.096L625.4 284.21C625.291 284.273 625.164 284.297 625.039 284.276Z" fill="white"/>
<path d="M643.45 256.423L638.1 298.146L601.124 315.434L655.294 312.465C652.645 293.552 651.308 274.874 643.45 256.423Z" fill="#28487D"/>
<path d="M481.383 225.626C481.383 225.626 496.457 271.965 507.465 294.187C521.509 322.543 560.731 309.148 545.972 271.303C536.91 249.026 520.044 228.89 510.982 206.614C498.584 210.68 481.383 225.626 481.383 225.626Z" fill="#FFAD7A"/>
<path d="M468.71 190.43C471.318 183.073 477.264 185.895 477.264 185.895C479.477 176.412 488.398 181.013 488.398 181.013C488.398 181.013 479.384 161.131 485.055 160.616C495.434 159.673 501.854 186.618 503.74 187.226C506.455 187.42 510.026 174.246 515.276 180.652C519.228 185.467 510.681 210.546 510.681 210.546L482.045 227.833C482.045 227.833 460.745 206.112 461.367 197.953C461.989 189.794 468.71 190.43 468.71 190.43Z" fill="#FFAD7A"/>
<path d="M494.798 197.545C494.832 197.291 489.488 186.491 488.78 180.826C488.699 180.258 487.81 180.305 487.89 180.88C488.646 186.75 490.653 192.39 493.775 197.418C493.817 197.479 493.872 197.529 493.936 197.565C493.798 198.383 493.458 199.153 492.946 199.806C492.346 200.498 491.518 200.953 490.612 201.09C488.746 201.391 486.987 200.588 485.442 199.618C485.415 199.568 485.379 199.523 485.336 199.485C481.179 195.946 478.429 191.035 477.585 185.641C477.498 185.08 476.608 185.133 476.695 185.702C477.555 191.322 480.403 196.447 484.72 200.147C484.781 200.198 484.855 200.231 484.934 200.24C485.491 200.597 486.072 200.915 486.673 201.19C486.292 202.025 485.735 202.768 485.038 203.366C484.341 203.964 483.523 204.403 482.639 204.652C481.756 204.902 480.829 204.956 479.922 204.81C479.016 204.665 478.152 204.324 477.391 203.811C477.391 203.811 477.391 203.811 477.391 203.771C473.282 200.297 470.371 195.618 469.071 190.396C468.931 189.841 468.082 190.122 468.222 190.677C469.569 196.049 472.565 200.864 476.789 204.447C476.877 204.52 476.989 204.556 477.103 204.547C477.708 204.923 478.363 205.211 479.049 205.403C477.712 207.684 475.832 209.804 473.171 210.486C470.081 211.288 469.158 208.713 467.078 206.687C466.711 206.333 466.176 206.921 466.543 207.276C467.74 208.439 468.844 210.218 470.382 210.907C471.753 211.509 471.827 211.623 473.278 211.282C476.274 210.573 478.367 208.145 479.858 205.584C480.858 205.752 481.883 205.702 482.861 205.437C483.863 205.148 484.791 204.647 485.582 203.969C486.373 203.29 487.01 202.45 487.449 201.504C488.576 201.946 489.804 202.062 490.993 201.839C492.014 201.647 492.942 201.12 493.631 200.343C494.319 199.566 494.73 198.582 494.798 197.545Z" fill="#28487D"/>
<path d="M643.932 242.171C643.932 244.893 652.739 298.294 657.708 321.687C668.281 358.85 709.871 353.627 705.939 310.987C702.849 277.549 700.147 263.043 687.495 241.081C676.988 222.878 653.809 211.462 643.932 242.171Z" fill="#FFAD7A"/>
<path d="M644.801 194.121C634.428 221.888 649.663 281.354 649.663 281.354C670.842 283.962 692.376 277.616 700.134 273.469C700.134 273.469 692.778 220.637 668.228 202.815C660.951 197.532 645.409 194.616 644.801 194.121Z" fill="#FF9B5C"/>
<path d="M617.395 303.376L673.484 299.25C705.083 297.538 708.34 342.05 680.031 346.973C660.751 348.591 638.026 348.497 616.947 344.297C617.094 330.641 617.244 317.001 617.395 303.376Z" fill="#FFAD7A"/>
<path d="M656.999 271.53C654.174 271.531 651.352 271.343 648.553 270.968C648.428 270.95 648.316 270.884 648.24 270.784C648.163 270.684 648.129 270.558 648.145 270.433C648.153 270.371 648.173 270.312 648.205 270.258C648.236 270.204 648.278 270.157 648.328 270.12C648.378 270.083 648.434 270.056 648.495 270.041C648.555 270.025 648.618 270.022 648.68 270.032C663.421 271.947 678.372 268.74 691.032 260.95C691.086 260.916 691.146 260.893 691.209 260.882C691.272 260.871 691.337 260.873 691.399 260.887C691.461 260.901 691.52 260.928 691.572 260.965C691.623 261.002 691.667 261.05 691.701 261.104C691.736 261.158 691.76 261.218 691.772 261.281C691.783 261.344 691.781 261.409 691.767 261.471C691.752 261.534 691.726 261.593 691.688 261.644C691.65 261.696 691.602 261.74 691.547 261.773C681.154 268.156 669.196 271.534 656.999 271.53Z" fill="white"/>
<path d="M616.519 306.613C616.52 306.978 616.449 307.34 616.31 307.677C616.171 308.015 615.966 308.321 615.709 308.58C615.451 308.838 615.145 309.043 614.807 309.183C614.47 309.323 614.109 309.395 613.744 309.395H481.035C480.441 309.402 479.861 309.217 479.379 308.869C478.898 308.521 478.541 308.028 478.36 307.462L456.96 240.553C456.825 240.134 456.792 239.689 456.863 239.255C456.934 238.821 457.108 238.409 457.369 238.055C457.63 237.701 457.972 237.415 458.366 237.219C458.76 237.023 459.195 236.923 459.635 236.928H548.687C549.28 236.921 549.86 237.105 550.341 237.451C550.823 237.798 551.18 238.29 551.362 238.854L571.592 301.912C571.774 302.476 572.132 302.967 572.613 303.313C573.095 303.66 573.674 303.844 574.267 303.838H613.724C614.088 303.838 614.449 303.909 614.786 304.049C615.122 304.188 615.428 304.393 615.686 304.65C615.944 304.908 616.148 305.214 616.288 305.551C616.427 305.888 616.499 306.248 616.499 306.613H616.519Z" fill="#28487D"/>
<path d="M565.861 309.188C565.861 309.188 599.245 309.602 601.974 309.188C601.974 309.188 603.545 304.975 601.78 304.58C597.988 303.731 590.003 303.911 590.003 303.911C589.882 297.471 602.776 289.867 610.922 292.054C624.377 295.719 641.317 305.75 645.302 307.83C648.974 314.651 651.582 332.949 648.646 342.806C648.646 342.806 639.478 354.068 628.483 356.482C618.044 358.649 604.883 353.68 602.649 343.97C598.142 345.388 591.28 340.231 592.069 334.855C587.141 335.824 579.717 327.866 580.219 323.84C576.066 326.321 558.638 314.016 565.861 309.188Z" fill="#FFAD7A"/>
<path d="M606.722 324.007H580.56C580.459 324.006 580.363 323.965 580.292 323.894C580.221 323.823 580.181 323.727 580.179 323.626C580.181 323.526 580.221 323.431 580.293 323.361C580.364 323.291 580.46 323.252 580.56 323.252H606.722C606.821 323.252 606.916 323.291 606.987 323.361C607.057 323.432 607.096 323.527 607.096 323.626C607.096 323.726 607.057 323.822 606.987 323.893C606.917 323.965 606.822 324.006 606.722 324.007ZM618.231 335.182H592.069C591.97 335.182 591.875 335.143 591.804 335.073C591.734 335.002 591.695 334.907 591.695 334.808C591.695 334.708 591.734 334.612 591.804 334.541C591.874 334.469 591.969 334.428 592.069 334.427H618.231C618.331 334.428 618.426 334.469 618.496 334.541C618.566 334.612 618.606 334.708 618.606 334.808C618.606 334.907 618.566 335.002 618.496 335.073C618.426 335.143 618.33 335.182 618.231 335.182ZM629.353 344.599H603.191C603.091 344.599 602.995 344.559 602.924 344.489C602.852 344.419 602.811 344.324 602.81 344.224C602.811 344.123 602.852 344.027 602.923 343.956C602.994 343.885 603.09 343.845 603.191 343.843H629.353C629.453 343.845 629.548 343.885 629.618 343.957C629.688 344.028 629.727 344.124 629.727 344.224C629.727 344.323 629.688 344.419 629.617 344.489C629.547 344.559 629.452 344.599 629.353 344.599Z" fill="#023384"/>
<path d="M610.38 206.045C610.126 206.045 609.872 206.045 609.624 206.045C607.397 205.978 605.214 205.416 603.231 204.4C601.327 203.377 599.716 201.885 598.55 200.066C598.477 199.953 598.452 199.815 598.481 199.683C598.51 199.552 598.59 199.437 598.703 199.364C598.817 199.291 598.955 199.267 599.086 199.296C599.218 199.325 599.333 199.405 599.406 199.518C600.487 201.19 601.976 202.56 603.733 203.497C605.582 204.439 607.617 204.96 609.691 205.022C612.86 205.115 615.998 204.367 618.783 202.852C621.569 201.338 623.903 199.112 625.547 196.402C625.616 196.285 625.728 196.199 625.859 196.165C625.99 196.13 626.129 196.149 626.246 196.218C626.363 196.286 626.449 196.398 626.483 196.529C626.517 196.66 626.498 196.799 626.43 196.917C624.752 199.678 622.398 201.965 619.589 203.563C616.78 205.16 613.611 206.014 610.38 206.045Z" fill="white"/>
<path d="M596.537 162.904C596.45 166.194 597.654 176.713 603.967 179.85C605.429 180.523 607.049 180.78 608.648 180.592C615.429 180.211 621.642 174.801 622.953 166.361C624.096 158.945 620.438 148.973 612.58 147.395C606.695 146.218 600.108 148.632 597.58 153.615C596.336 155.955 596.617 159.493 596.537 162.904Z" fill="#FFAD7A"/>
<path d="M615.931 128.061C627.299 125.038 632.77 130.736 637.411 137.544C644.059 147.315 641.758 171.818 620.632 172.614C623.534 166.448 624.731 162.496 621.822 162.73C619.93 163.204 619.662 167.11 618.786 166.241C620.057 145.91 613.811 160.677 604.361 149.582C603.94 151.287 601.305 153.126 599.566 153.334C597.125 154.069 596.503 158.831 596.503 158.831C589.648 153.066 594.718 145.255 594.718 145.255C585.275 134.742 596.784 114.74 615.931 128.061Z" fill="#28487D"/>
<path d="M610.962 156.738C612.487 156.316 616.098 157.212 616.412 159.847C615.783 159.198 614.997 158.721 614.131 158.462C613.264 158.204 612.346 158.172 611.463 158.369C610.574 158.63 610.621 156.831 610.962 156.738ZM603.572 155.955C602.235 155.133 598.503 154.999 597.48 157.446C598.263 156.996 599.149 156.753 600.053 156.743C600.957 156.732 601.849 156.954 602.642 157.386C603.432 157.848 603.873 156.129 603.572 155.955Z" fill="#28487D"/>
<path d="M599.566 163.358C600.419 163.358 601.111 162.667 601.111 161.813C601.111 160.96 600.419 160.269 599.566 160.269C598.713 160.269 598.021 160.96 598.021 161.813C598.021 162.667 598.713 163.358 599.566 163.358Z" fill="#28487D"/>
<path d="M599.727 160.282C598.563 160.182 598.255 161.165 597.052 160.951C597.251 161.141 597.495 161.277 597.761 161.347C598.027 161.417 598.306 161.419 598.573 161.353C598.84 161.286 599.086 161.153 599.287 160.966C599.489 160.778 599.64 160.543 599.727 160.282Z" fill="#28487D"/>
<path d="M599.078 161.82C599.277 161.82 599.439 161.658 599.439 161.459C599.439 161.26 599.277 161.098 599.078 161.098C598.878 161.098 598.717 161.26 598.717 161.459C598.717 161.658 598.878 161.82 599.078 161.82Z" fill="white"/>
<path d="M611.918 165.545C612.771 165.545 613.463 164.853 613.463 164C613.463 163.147 612.771 162.455 611.918 162.455C611.065 162.455 610.373 163.147 610.373 164C610.373 164.853 611.065 165.545 611.918 165.545Z" fill="#28487D"/>
<path d="M612.179 162.482C613.329 162.696 613.356 163.733 614.56 163.82C614.319 163.945 614.051 164.008 613.78 164.003C613.509 163.999 613.244 163.927 613.008 163.795C612.771 163.662 612.572 163.472 612.427 163.243C612.282 163.014 612.197 162.753 612.179 162.482Z" fill="#28487D"/>
<path d="M612.487 164.154C612.686 164.154 612.848 163.992 612.848 163.793C612.848 163.594 612.686 163.432 612.487 163.432C612.287 163.432 612.125 163.594 612.125 163.793C612.125 163.992 612.287 164.154 612.487 164.154Z" fill="white"/>
<path d="M603.278 166.782C604 165.097 605.953 164.034 605.953 162.014C605.953 161.513 606.729 161.566 606.742 162.074C606.789 163.8 605.491 165.01 604.528 166.287C604.12 166.816 603.619 167.625 604.107 168.254C604.595 168.882 605.491 168.882 606.2 168.922C606.702 168.922 606.648 169.725 606.14 169.705C605.27 169.763 604.409 169.506 603.712 168.983C603.412 168.712 603.208 168.351 603.129 167.955C603.051 167.558 603.103 167.147 603.278 166.782Z" fill="#28487D"/>
<path d="M602.315 171.45C602.29 172.277 602.524 173.09 602.983 173.777C603.214 174.267 603.567 174.688 604.008 175.001C604.45 175.314 604.964 175.507 605.502 175.563C606.04 175.619 606.583 175.535 607.079 175.319C607.575 175.104 608.007 174.764 608.334 174.333C608.939 173.74 609.344 172.973 609.49 172.139C607.087 172.694 604.569 172.452 602.315 171.45Z" fill="white"/>
<path d="M603.024 173.777C603.254 174.267 603.607 174.688 604.048 175.001C604.49 175.314 605.004 175.507 605.542 175.563C606.08 175.619 606.623 175.535 607.119 175.319C607.615 175.104 608.047 174.764 608.374 174.333C607.556 173.861 606.641 173.584 605.699 173.523C604.799 173.417 603.887 173.504 603.024 173.777Z" fill="white"/>
<path d="M625.499 166.52C625.86 163.915 624.501 161.575 622.463 161.292C620.425 161.01 618.481 162.893 618.12 165.498C617.759 168.102 619.118 170.443 621.156 170.725C623.194 171.008 625.138 169.125 625.499 166.52Z" fill="#FFAD7A"/>
<path d="M319.343 547.112C319.343 547.112 242.329 545.594 169.427 546.61H169.374C109.854 547.426 47.0647 549.66 34.1376 547.112C5.38103 541.427 -5.83404 465.724 2.88656 417.045C3.11394 415.761 3.36138 414.49 3.62889 413.213C15.0513 356.683 65.2617 308.392 139.507 325.291C215.418 342.592 176.851 387.74 260.486 418.169C333.099 444.565 319.343 547.112 319.343 547.112Z" fill="#E6DBD4"/>
<path d="M74.8316 362.802L64.1314 395.531C64.1314 395.531 41.3936 406.86 32.4724 421.552C32.4724 421.552 51.8664 415.293 67.2478 427.972C90.106 446.805 78.3358 467.797 110.537 482.61C123.43 491.866 201.635 470.954 214.007 471.91C239.273 473.883 277.131 484.456 277.131 484.456C277.131 484.456 245.251 443.728 213.599 440.659C208.764 429.18 204.667 417.403 201.334 405.402C201.04 404.312 158.975 404.171 157.604 387.165C156.233 370.158 170.203 361.391 170.203 361.391C165.253 360.047 160.033 360.047 155.083 361.391C144.289 364.374 143.005 348.685 149.826 345.561C145.967 340.225 83.2111 355.332 74.8316 362.802Z" fill="#D6C6BC"/>
<path d="M367.38 449.955L345.772 494.654L390.379 514.991L411.986 470.292L367.38 449.955Z" fill="#FFAD7A"/>
<path d="M393.207 461.731C394.17 459.658 411.859 438.994 441.231 436.319C449.7 435.634 458.202 437.154 465.908 440.732C461.896 448.818 416.58 539.434 416.574 539.441L378.809 509.728C378.809 509.728 403.185 485.573 393.207 461.731Z" fill="#24467D"/>
<path d="M429.185 543.374L476.835 447.927C478.327 444.94 477.114 441.309 474.127 439.818L473.319 439.415C470.332 437.923 466.701 439.136 465.21 442.123L417.559 537.57C416.068 540.558 417.28 544.188 420.268 545.68L421.075 546.083C424.063 547.574 427.693 546.362 429.185 543.374Z" fill="#FF9B5C"/>
<path d="M433.774 458.675C433.692 458.84 433.581 458.99 433.447 459.117C433.14 459.411 432.73 459.573 432.305 459.565C431.88 459.558 431.475 459.382 431.179 459.076C420.64 448.162 422.111 441.782 422.318 441.094C422.439 440.69 422.713 440.35 423.082 440.146C423.451 439.943 423.886 439.893 424.291 440.007C424.697 440.121 425.041 440.39 425.25 440.756C425.459 441.122 425.516 441.556 425.408 441.963C425.408 442.137 424.378 447.407 433.487 456.843C433.718 457.081 433.87 457.385 433.922 457.713C433.973 458.041 433.922 458.378 433.774 458.675ZM421.041 464.6C420.958 464.762 420.85 464.909 420.72 465.035C420.414 465.33 420.003 465.491 419.578 465.484C419.153 465.476 418.749 465.3 418.453 464.995C407.913 454.081 409.385 447.701 409.592 447.012C409.712 446.608 409.987 446.268 410.356 446.065C410.725 445.862 411.159 445.812 411.565 445.926C411.97 446.04 412.315 446.309 412.524 446.675C412.733 447.041 412.789 447.474 412.682 447.881C412.682 448.055 411.652 453.332 420.76 462.761C420.992 463.001 421.144 463.306 421.194 463.636C421.245 463.966 421.191 464.303 421.041 464.6Z" fill="white"/>
<path d="M261.215 473.054L189.791 436.834C149.666 419.265 174.035 363.645 214.147 381.206L280.461 410.244C315.257 425.465 296.01 488.328 261.215 473.054Z" fill="#688FCF"/>
<path d="M348.829 512.203L268.872 477.113C220.5 455.886 241.453 393.418 289.844 414.644L375.318 451.841L348.829 512.203Z" fill="#688FCF"/>
<path d="M249.01 417.807L247.518 451.607L285.129 484.249C266.792 478.19 249.558 467.476 233.541 459.19L249.01 417.807Z" fill="#24467D"/>
<path d="M192.68 313.976C199.247 325.673 204.791 341.79 211.526 355.947C220.828 379.501 193.596 392.174 181.037 367.089C173.815 352.135 167.709 341.442 165.542 324.957C163.75 311.294 182.321 295.538 192.68 313.976Z" fill="#FFAD7A"/>
<path d="M214.729 478.277L168.732 462.922L157.216 500.834L203.213 516.182L214.729 478.277Z" fill="#FFAD7A"/>
<path d="M211.472 488.803C213.666 488.743 232.926 487.94 247.813 512.002C252.028 518.976 254.367 526.922 254.601 535.068H148.749L159.583 491.324C159.583 491.324 195.295 507.588 211.472 488.803Z" fill="#24467D"/>
<path d="M150.799 547.56L253.14 547.524C256.342 547.523 258.937 544.927 258.936 541.724L258.935 540.855C258.934 537.653 256.337 535.058 253.135 535.059L150.795 535.095C147.593 535.096 144.998 537.692 144.999 540.895L144.999 541.764C145 544.966 147.597 547.561 150.799 547.56Z" fill="#FF9B5C"/>
<path d="M225.423 515.185C225.249 515.186 225.077 515.156 224.914 515.098C224.529 514.962 224.213 514.679 224.037 514.31C223.86 513.942 223.836 513.518 223.971 513.132C228.82 499.409 234.926 497.938 235.601 497.818C236.002 497.741 236.417 497.826 236.755 498.055C237.093 498.284 237.326 498.637 237.403 499.038C237.481 499.439 237.395 499.854 237.166 500.192C236.937 500.53 236.584 500.763 236.183 500.841C236.022 500.887 231.067 502.298 226.88 514.155C226.773 514.456 226.575 514.717 226.314 514.901C226.053 515.085 225.742 515.185 225.423 515.185ZM213.017 508.859C212.842 508.86 212.667 508.83 212.502 508.772C212.117 508.636 211.801 508.352 211.625 507.984C211.448 507.615 211.424 507.192 211.559 506.806C216.414 493.083 222.513 491.612 223.196 491.491C223.596 491.414 224.012 491.499 224.35 491.728C224.687 491.957 224.921 492.311 224.998 492.712C225.075 493.113 224.99 493.528 224.761 493.866C224.532 494.204 224.178 494.437 223.777 494.514C223.61 494.561 218.661 495.972 214.468 507.829C214.364 508.13 214.168 508.392 213.908 508.576C213.647 508.761 213.336 508.86 213.017 508.859Z" fill="white"/>
<path d="M126.56 283.099C126.56 283.099 138.484 286.243 143.246 285.915L142.697 272.653L142.416 267.818L128.011 263.659L126.56 283.099Z" fill="#FFAD7A"/>
<path d="M134.224 272.988C136.745 275.756 140.658 277.087 142.711 271.985L142.43 267.838L129.128 265.163C129.128 265.163 132.124 270.687 134.224 272.988Z" fill="#24467D"/>
<path d="M124.547 259.786C127.503 265.738 133.154 269.778 139.835 268.567C148.087 267.069 149.198 259.586 149.03 256.777C148.455 247.414 147.94 238.928 141.547 235.738C136.297 233.123 128.399 234.721 124.453 239.229C117.967 246.639 123.671 258.068 124.547 259.786Z" fill="#FFAD7A"/>
<path d="M168.872 337.898C169.842 345.655 185.203 370.901 186.454 374.9C183.746 395.13 176.918 400.982 166.01 396.802C151.077 391.104 105.641 426.321 89.3303 419.439C95.8707 399.47 95.416 363.096 95.9644 329.09L93.7107 287.453V287.012C96.0446 283.447 106.725 280.893 115.218 279.375C120.729 278.133 126.361 277.512 132.01 277.522C139.848 277.522 147.011 278.672 153.651 279.963C154.106 279.963 167.695 283.915 170.37 287.64C181.907 303.557 166.793 321.212 168.872 337.898Z" fill="#FF9B5C"/>
<path d="M147.345 278.833C160.426 308.191 165.89 351.961 169.374 393.351L130.7 414.49C131.669 367.075 131.796 320.47 120.588 278.465L126.975 277.522L142.871 278.191L147.345 278.833Z" fill="white"/>
<path d="M105.568 389.706C104.805 386.931 132.037 374.94 132.037 374.94C132.037 374.94 104.223 360.174 104.203 357.378C104.116 341.549 104.317 325.987 104.317 325.987L93.4297 353.239C93.4297 353.239 96.2051 374.813 94.6803 387.472C93.3428 398.413 88.1599 418.322 89.3302 419.459C96.2786 423.472 109.273 419.031 125.283 410.391C125.283 410.371 107.567 396.949 105.568 389.706Z" fill="#24467D"/>
<path d="M109.982 311.776C109.821 314.056 94.4797 360.087 89.1631 379.381C78.5766 409.842 42.7178 398.453 51.5521 363.718C57.0694 343.234 64.4658 325.051 75.8682 307.502C85.3378 292.937 103.775 285.28 109.982 311.776Z" fill="#FFAD7A"/>
<path d="M181.565 293.719C191.082 303.664 205.219 329.164 205.219 329.164L169.548 345.548L153.651 280.01C159.951 281.474 172.892 284.651 181.565 293.719Z" fill="#FF9B5C"/>
<path d="M169.695 325.987L181.933 339.817L171.213 344.739L169.695 325.987Z" fill="#24467D"/>
<path d="M142.871 278.164C142.871 278.164 141.534 284.852 136.645 285.828C132.091 286.731 127.282 282.29 126.975 277.522C133.408 276.084 138.611 275.282 142.871 278.164Z" fill="#FFAD7A"/>
<path d="M135.194 251.059C133.702 250.618 130.138 251.427 129.777 254.002C130.41 253.381 131.192 252.932 132.047 252.698C132.903 252.464 133.804 252.453 134.665 252.664C135.562 252.925 135.521 251.16 135.194 251.059ZM142.102 250.337C143.44 249.554 147.104 249.501 148.061 251.922C147.3 251.465 146.434 251.21 145.547 251.182C144.66 251.154 143.78 251.353 142.991 251.761C142.202 252.203 141.808 250.511 142.102 250.337Z" fill="#24467D"/>
<path d="M145.666 255.593C146.505 255.593 147.185 254.914 147.185 254.075C147.185 253.237 146.505 252.557 145.666 252.557C144.828 252.557 144.148 253.237 144.148 254.075C144.148 254.914 144.828 255.593 145.666 255.593Z" fill="#24467D"/>
<path d="M145.533 252.564C146.683 252.484 146.964 253.46 148.134 253.273C147.935 253.452 147.693 253.578 147.432 253.64C147.171 253.702 146.899 253.697 146.64 253.627C146.382 253.556 146.145 253.422 145.951 253.236C145.758 253.051 145.614 252.819 145.533 252.564Z" fill="#24467D"/>
<path d="M133.488 257.499C134.327 257.499 135.007 256.82 135.007 255.981C135.007 255.143 134.327 254.463 133.488 254.463C132.65 254.463 131.97 255.143 131.97 255.981C131.97 256.82 132.65 257.499 133.488 257.499Z" fill="#24467D"/>
<path d="M133.268 254.483C132.131 254.677 132.084 255.687 130.9 255.781C131.136 255.909 131.401 255.976 131.669 255.975C131.938 255.975 132.202 255.907 132.438 255.778C132.674 255.649 132.873 255.463 133.018 255.236C133.163 255.01 133.249 254.751 133.268 254.483ZM142.583 258.275C141.915 256.603 139.989 255.527 140.082 253.54C140.082 253.045 139.333 253.092 139.313 253.58C139.233 255.279 140.477 256.496 141.406 257.76C141.794 258.289 142.269 259.098 141.774 259.706C141.279 260.315 140.437 260.295 139.708 260.308C139.614 260.324 139.53 260.374 139.471 260.449C139.412 260.523 139.382 260.616 139.387 260.71C139.392 260.805 139.432 260.895 139.498 260.962C139.564 261.03 139.653 261.071 139.748 261.077C140.603 261.153 141.456 260.915 142.149 260.408C142.439 260.146 142.638 259.797 142.716 259.413C142.794 259.029 142.748 258.631 142.583 258.275Z" fill="#24467D"/>
<path d="M118.936 278.625C119.13 280.572 112.382 285.139 113.158 288.811C116.622 305.135 97.2283 365.049 97.2283 365.049C97.2283 365.049 66.987 355.914 50.6292 349.989C50.6292 349.989 75.4602 293.96 88.5077 286.162C95.5163 281.963 115.499 278.625 118.936 278.625Z" fill="#FF9B5C"/>
<path d="M251.297 310.438C250.661 312.391 231.829 350.644 222.861 366.326C206.684 390.616 176.79 373.181 192.266 344.799C201.675 328.107 209.794 307.69 219.21 291.044C228.592 295.485 241.894 305.944 251.297 310.438Z" fill="#FFAD7A"/>
<path d="M265.12 273.222C262.96 265.09 256.313 267.604 256.313 267.604C254.761 257.205 244.763 261.378 244.763 261.378C244.763 261.378 256.192 240.774 250.113 239.717C239.032 237.804 229.77 266.233 227.69 266.728C224.754 266.695 222.059 252.209 215.846 258.643C211.165 263.485 217.725 294.756 217.725 294.756L248.488 314.15C248.488 314.15 272.363 290.797 272.403 281.956C272.443 273.115 265.12 273.222 265.12 273.222Z" fill="#FFAD7A"/>
<path d="M236.437 278.612C236.437 278.331 243.125 267.176 244.402 261.157C244.536 260.556 245.485 260.689 245.358 261.291C244.015 267.53 241.352 273.408 237.547 278.532C237.5 278.599 237.435 278.652 237.36 278.686C237.436 279.576 237.737 280.432 238.236 281.173C238.816 281.975 239.666 282.541 240.63 282.765C242.636 283.253 244.569 282.544 246.321 281.628C246.354 281.576 246.398 281.53 246.448 281.494C251.226 278.05 254.611 273.009 255.992 267.283C256.132 266.681 257.088 266.815 256.948 267.417C255.527 273.392 252.008 278.658 247.03 282.257C246.963 282.309 246.881 282.339 246.796 282.344C246.165 282.681 245.51 282.971 244.837 283.213C245.175 284.145 245.711 284.991 246.409 285.695C247.107 286.398 247.95 286.942 248.879 287.287C249.807 287.632 250.8 287.772 251.788 287.695C252.776 287.619 253.736 287.329 254.601 286.844C254.612 286.829 254.626 286.816 254.641 286.804C259.364 283.418 262.906 278.635 264.766 273.128C264.96 272.54 265.849 272.914 265.648 273.496C263.73 279.152 260.086 284.064 255.229 287.54C255.181 287.576 255.126 287.602 255.067 287.615C255.008 287.629 254.947 287.631 254.888 287.62C254.205 287.97 253.475 288.223 252.721 288.369C253.985 290.944 255.791 293.385 258.593 294.355C261.85 295.485 263.06 292.796 265.481 290.797C265.909 290.449 266.438 291.131 266.01 291.466C264.632 292.649 263.294 294.475 261.556 295.057C260.031 295.592 259.944 295.726 258.406 295.211C255.243 294.187 253.203 291.399 251.818 288.523C250.728 288.613 249.632 288.469 248.602 288.102C247.55 287.704 246.596 287.086 245.804 286.287C245.013 285.489 244.402 284.529 244.014 283.474C242.762 283.847 241.43 283.864 240.169 283.521C239.092 283.229 238.143 282.589 237.468 281.701C236.793 280.813 236.431 279.727 236.437 278.612ZM141.192 263.358C141.164 263.258 141.098 263.173 141.008 263.122C140.918 263.07 140.811 263.057 140.711 263.083C140.192 263.323 139.624 263.438 139.052 263.418C138.856 263.399 138.667 263.334 138.5 263.23C138.333 263.125 138.193 262.984 138.089 262.816C137.849 262.375 137.18 262.762 137.421 263.21C137.574 263.469 137.783 263.69 138.033 263.856C138.283 264.023 138.568 264.131 138.865 264.174C139.569 264.24 140.278 264.125 140.925 263.839C141.023 263.808 141.105 263.741 141.154 263.652C141.204 263.562 141.218 263.457 141.192 263.358Z" fill="#24467D"/>
<path d="M94.687 354.576C94.8245 354.576 94.9571 354.525 95.0602 354.434C95.1634 354.344 95.2301 354.218 95.2481 354.082C95.266 353.946 95.234 353.808 95.1579 353.693C95.0818 353.579 94.9668 353.496 94.8342 353.459C82.937 350.189 71.0531 346.284 59.5304 341.856C59.4606 341.83 59.3862 341.817 59.3114 341.819C59.2367 341.821 59.163 341.838 59.0947 341.868C59.0264 341.898 58.9648 341.942 58.9133 341.996C58.8618 342.05 58.8216 342.114 58.7948 342.184C58.768 342.254 58.7552 342.328 58.7572 342.403C58.7592 342.478 58.7758 342.552 58.8063 342.62C58.8367 342.688 58.8803 342.75 58.9345 342.801C58.9888 342.853 59.0526 342.893 59.1225 342.92C70.6786 347.36 82.5959 351.279 94.5667 354.556L94.687 354.576ZM126.199 327.271C126.309 327.273 126.416 327.24 126.507 327.177C126.57 327.138 126.625 327.086 126.668 327.025C126.711 326.964 126.741 326.895 126.757 326.822C126.772 326.749 126.773 326.673 126.759 326.6C126.744 326.526 126.716 326.457 126.674 326.395L113.9 306.64L120.849 303.162C120.938 303.112 121.012 303.039 121.064 302.951C121.115 302.863 121.143 302.763 121.143 302.661C121.143 302.558 121.115 302.458 121.064 302.37C121.012 302.282 120.938 302.209 120.849 302.159L107.407 294.281L119.371 280.431C119.421 280.374 119.458 280.308 119.483 280.237C119.507 280.166 119.517 280.09 119.512 280.015C119.507 279.94 119.487 279.867 119.454 279.799C119.42 279.732 119.374 279.671 119.317 279.622C119.261 279.572 119.195 279.534 119.124 279.51C119.052 279.486 118.977 279.476 118.902 279.481C118.827 279.486 118.753 279.506 118.686 279.539C118.618 279.572 118.558 279.619 118.508 279.675L106.096 294.054C106.041 294.117 106.001 294.192 105.979 294.273C105.957 294.354 105.954 294.439 105.969 294.522C105.982 294.604 106.013 294.682 106.061 294.751C106.108 294.819 106.171 294.876 106.243 294.916L119.391 302.614L112.824 305.904C112.753 305.941 112.69 305.992 112.639 306.054C112.589 306.116 112.552 306.188 112.531 306.266C112.509 306.343 112.504 306.424 112.515 306.503C112.527 306.582 112.554 306.658 112.596 306.727L125.717 327.01C125.77 327.09 125.842 327.155 125.926 327.201C126.01 327.246 126.103 327.27 126.199 327.271ZM163.221 324.348C163.349 324.351 163.473 324.309 163.574 324.232C163.675 324.154 163.746 324.044 163.776 323.92L169.006 302.854C169.035 302.738 169.027 302.615 168.982 302.504C168.938 302.392 168.86 302.297 168.759 302.233L161.643 297.732L166.993 295.157C167.081 295.115 167.157 295.051 167.213 294.972C167.269 294.892 167.304 294.799 167.314 294.702C167.324 294.606 167.31 294.508 167.271 294.419C167.232 294.33 167.171 294.252 167.093 294.194L151.471 282.036C151.351 281.973 151.212 281.955 151.08 281.985C150.948 282.015 150.831 282.092 150.75 282.201C150.669 282.31 150.63 282.444 150.64 282.58C150.649 282.715 150.707 282.842 150.803 282.939L165.656 294.502L160.225 297.123C160.134 297.167 160.057 297.235 160.001 297.318C159.944 297.402 159.912 297.5 159.905 297.6C159.899 297.701 159.92 297.802 159.966 297.892C160.011 297.982 160.08 298.058 160.165 298.113L167.776 302.975L162.64 323.646C162.611 323.79 162.639 323.94 162.717 324.064C162.795 324.189 162.918 324.278 163.061 324.315C163.112 324.336 163.166 324.347 163.221 324.348ZM179.439 333.176C179.525 333.194 179.614 333.194 179.7 333.176L199.836 323.626C199.904 323.594 199.964 323.549 200.014 323.494C200.065 323.438 200.103 323.373 200.129 323.303C200.154 323.232 200.165 323.157 200.161 323.083C200.157 323.008 200.139 322.935 200.107 322.867C200.075 322.799 200.03 322.739 199.974 322.689C199.919 322.638 199.854 322.6 199.783 322.574C199.713 322.549 199.638 322.538 199.563 322.542C199.489 322.546 199.415 322.564 199.348 322.596L179.211 332.146C179.075 332.21 178.969 332.325 178.918 332.467C178.866 332.609 178.873 332.765 178.937 332.902C178.99 332.987 179.064 333.057 179.152 333.105C179.24 333.153 179.339 333.177 179.439 333.176Z" fill="white"/>
<path d="M105.855 373.235C105.855 373.914 106.125 374.565 106.605 375.046C107.086 375.526 107.737 375.796 108.417 375.796H230.733C231.275 375.796 231.802 375.624 232.24 375.304C232.678 374.984 233.002 374.533 233.167 374.017L252.889 312.344C253.013 311.96 253.045 311.551 252.982 311.152C252.918 310.753 252.76 310.375 252.522 310.049C252.284 309.722 251.972 309.457 251.611 309.275C251.25 309.093 250.852 308.999 250.448 309H168.384C167.842 308.999 167.314 309.171 166.875 309.489C166.437 309.808 166.11 310.257 165.943 310.773L147.258 368.894C147.092 369.41 146.767 369.859 146.33 370.177C145.892 370.496 145.365 370.667 144.824 370.667H108.417C107.738 370.668 107.087 370.939 106.607 371.419C106.127 371.899 105.857 372.549 105.855 373.228V373.235Z" fill="#24467D"/>
<path d="M145.031 254.102C145.26 254.102 145.446 253.916 145.446 253.687C145.446 253.458 145.26 253.273 145.031 253.273C144.802 253.273 144.617 253.458 144.617 253.687C144.617 253.916 144.802 254.102 145.031 254.102Z" fill="white"/>
<path d="M133 256.001C133.229 256.001 133.415 255.816 133.415 255.587C133.415 255.358 133.229 255.172 133 255.172C132.771 255.172 132.586 255.358 132.586 255.587C132.586 255.816 132.771 256.001 133 256.001Z" fill="white"/>
<path d="M237.781 404.907L155.25 456.542C107.313 481.453 60.7609 421.934 108.698 397.022L209.68 350.878C251.257 329.27 279.345 383.333 237.781 404.907Z" fill="#D99F7A"/>
<path d="M166.01 469.716L194.767 389.071C220.567 322.596 277.332 344.625 251.531 411.1L222.045 483.279C199.207 480.617 187.196 476.651 166.01 469.716Z" fill="#D99F7A"/>
<path d="M212.047 467.148C212.132 467.157 212.217 467.141 212.292 467.102C212.367 467.063 212.428 467.002 212.469 466.928C213.9 463.684 247.431 387.238 238.811 366.908C238.437 365.889 237.852 364.961 237.095 364.183C236.338 363.405 235.426 362.795 234.417 362.394C211.278 353.847 136.899 406.071 133.716 408.271C133.669 408.303 133.63 408.344 133.6 408.391C133.57 408.439 133.549 408.492 133.54 408.547C133.531 408.603 133.533 408.66 133.545 408.714C133.558 408.769 133.582 408.821 133.615 408.866C133.68 408.959 133.779 409.023 133.891 409.043C134.002 409.063 134.117 409.038 134.211 408.973C134.98 408.431 211.412 354.804 234.09 363.163C234.984 363.522 235.794 364.064 236.465 364.755C237.137 365.446 237.656 366.271 237.989 367.176C246.468 387.172 212.001 465.731 211.653 466.526C211.63 466.578 211.617 466.633 211.616 466.689C211.614 466.745 211.624 466.801 211.645 466.854C211.665 466.906 211.696 466.954 211.735 466.994C211.775 467.034 211.822 467.066 211.874 467.088C211.926 467.122 211.985 467.142 212.047 467.148Z" fill="white"/>
<path d="M175.7 442.378L218.24 401.175L166.01 469.716L175.7 442.378Z" fill="#24467D"/>
<path d="M144.75 412.09C144.75 412.09 98.82 403.77 69.9296 398.046C37.9429 391.733 46.4562 352.463 81.6329 360.635C102.364 365.778 145.613 377.261 145.613 377.261L144.75 412.09Z" fill="#FFAD7A"/>
<path d="M169.809 417.573C170.013 416.761 169.981 415.907 169.718 415.111C169.456 414.315 168.972 413.611 168.324 413.079L168.612 413.153C169.588 413.405 170.622 413.315 171.54 412.899C172.459 412.483 173.208 411.765 173.662 410.864C174.116 409.964 174.249 408.935 174.039 407.949C173.828 406.963 173.286 406.078 172.504 405.442L173.48 405.689C174.047 405.837 174.637 405.872 175.217 405.79C175.797 405.709 176.355 405.513 176.859 405.214C177.363 404.916 177.803 404.521 178.154 404.051C178.504 403.582 178.758 403.048 178.9 402.479C179.043 401.911 179.072 401.321 178.985 400.741C178.898 400.162 178.697 399.606 178.394 399.105C178.091 398.604 177.691 398.167 177.219 397.821C176.746 397.476 176.21 397.227 175.64 397.089L173.681 396.594C174.779 396.646 175.857 396.289 176.706 395.591C177.555 394.893 178.115 393.905 178.276 392.817C178.438 391.73 178.19 390.622 177.58 389.707C176.971 388.792 176.044 388.137 174.978 387.867L152.28 382.156C152.147 382.156 152.02 382.116 151.886 382.096L148.362 380.317L160.138 376.772C160.713 376.62 161.252 376.354 161.722 375.989C162.192 375.625 162.584 375.169 162.874 374.65C163.164 374.131 163.347 373.559 163.412 372.967C163.476 372.376 163.421 371.778 163.25 371.208C163.078 370.638 162.794 370.109 162.414 369.652C162.033 369.194 161.565 368.818 161.036 368.545C160.508 368.273 159.93 368.109 159.336 368.065C158.743 368.02 158.147 368.095 157.584 368.286C157.584 368.286 145.198 371.556 141.092 372.72C140.477 372.9 128.045 374.853 128.045 374.853L119.097 403.396C134.726 416.864 150.856 420.783 164.432 420.783C164.996 420.926 165.582 420.956 166.157 420.871C166.733 420.787 167.286 420.59 167.785 420.292C168.285 419.994 168.72 419.601 169.067 419.134C169.415 418.668 169.666 418.137 169.809 417.573Z" fill="#FFAD7A"/>
<path d="M148.589 390.275C148.567 390.369 148.582 390.469 148.632 390.553C148.682 390.637 148.762 390.697 148.856 390.723L173.601 396.956C173.648 396.968 173.697 396.972 173.745 396.965C173.793 396.959 173.84 396.942 173.882 396.917C173.924 396.892 173.96 396.859 173.989 396.82C174.017 396.78 174.038 396.736 174.049 396.688C174.061 396.641 174.063 396.592 174.056 396.544C174.049 396.496 174.033 396.45 174.008 396.408C173.983 396.367 173.95 396.33 173.911 396.301C173.872 396.273 173.828 396.252 173.781 396.24L149.037 390.007C148.942 389.986 148.843 390.002 148.76 390.052C148.677 390.102 148.616 390.181 148.589 390.275ZM147.205 399.029C147.193 399.076 147.19 399.125 147.197 399.173C147.204 399.221 147.22 399.267 147.245 399.308C147.27 399.35 147.303 399.386 147.342 399.415C147.381 399.444 147.425 399.465 147.472 399.477L172.216 405.71C172.311 405.73 172.41 405.714 172.493 405.665C172.576 405.615 172.638 405.535 172.664 405.442C172.687 405.347 172.671 405.247 172.621 405.164C172.571 405.08 172.491 405.019 172.397 404.994L147.653 398.761C147.606 398.748 147.557 398.745 147.508 398.751C147.46 398.758 147.413 398.774 147.372 398.799C147.33 398.824 147.293 398.857 147.265 398.897C147.236 398.936 147.216 398.981 147.205 399.029ZM143.052 406.739C143.039 406.786 143.035 406.836 143.042 406.884C143.048 406.932 143.065 406.979 143.09 407.021C143.115 407.062 143.148 407.099 143.187 407.128C143.227 407.156 143.272 407.177 143.319 407.188L168.063 413.42C168.158 413.441 168.257 413.425 168.34 413.375C168.423 413.326 168.485 413.246 168.511 413.153C168.534 413.058 168.518 412.958 168.468 412.875C168.418 412.791 168.338 412.73 168.244 412.705L143.5 406.472C143.453 406.459 143.404 406.456 143.355 406.462C143.307 406.469 143.26 406.485 143.219 406.51C143.177 406.535 143.14 406.568 143.112 406.608C143.083 406.647 143.063 406.692 143.052 406.739ZM149.144 242.553C148.963 245.107 148.362 248.464 148.362 248.464C148.362 248.464 145.76 245 145.312 244.245C141.172 244.913 137.789 246.304 133.401 245.689C132.733 244.9 132.612 243.422 132.064 242.553C131.395 242.967 131.007 245.228 130.874 245.977C129.457 246.481 128.129 247.208 126.941 248.13C124.795 250.103 125.009 260.522 125.009 260.522C125.009 260.522 121.504 259.954 122.414 260.803C117.01 255.781 114.489 256.155 110.791 249.595C107.3 243.409 105.701 238.186 108.524 230.475C112.623 219.28 131.676 219.882 132.532 222.349C145.319 210.058 158.968 227.191 149.144 242.553Z" fill="#24467D"/>
<path d="M116.709 217.996C116.709 217.996 113.927 221.019 113.559 223.607C110.737 222.71 106.671 224.944 105.909 226.449C107.705 226.429 109.491 226.726 111.185 227.325L117.385 223.781C116.168 222.062 116.709 217.996 116.709 217.996Z" fill="#24467D"/>
<path d="M123.243 254.035C123.243 254.035 120.568 252.236 119.799 254.035C119.03 255.834 121.076 262.475 125.818 261.706C125.844 261.699 123.771 254.015 123.243 254.035Z" fill="#FFAD7A"/>
<path d="M219.972 468.64C220.086 468.648 220.198 468.61 220.284 468.536C220.37 468.461 220.422 468.355 220.43 468.242C220.438 468.128 220.401 468.016 220.326 467.93C220.252 467.844 220.146 467.792 220.032 467.784C207.44 466.085 195.081 462.246 180.449 456.963C180.395 456.94 180.338 456.928 180.279 456.928C180.221 456.929 180.164 456.94 180.11 456.963C180.057 456.986 180.009 457.02 179.969 457.062C179.929 457.105 179.898 457.155 179.878 457.209C179.858 457.264 179.849 457.322 179.852 457.38C179.856 457.438 179.871 457.495 179.896 457.547C179.922 457.599 179.959 457.645 180.003 457.683C180.047 457.72 180.099 457.749 180.154 457.766C194.867 463.049 207.252 466.921 219.919 468.633L219.972 468.64Z" fill="white"/>
<path d="M276.469 119.856C307.874 119.856 333.333 94.3964 333.333 62.991C333.333 31.5856 307.874 6.12646 276.469 6.12646C245.063 6.12646 219.604 31.5856 219.604 62.991C219.604 94.3964 245.063 119.856 276.469 119.856Z" fill="white"/>
<path d="M276.369 121.033C262.222 120.97 248.586 115.744 238.022 106.336C227.457 96.9275 220.693 83.9848 218.999 69.9402C217.306 55.8955 220.8 41.7159 228.825 30.066C236.849 18.416 248.853 10.0979 262.579 6.67489C263.294 6.50102 264.01 6.33383 264.739 6.1867C279.815 3.07659 295.509 6.08282 308.369 14.544C321.228 23.0053 330.2 36.2284 333.31 51.3045C336.42 66.3806 333.414 82.0747 324.953 94.9342C316.491 107.794 303.268 116.766 288.192 119.876C287.523 120.023 286.768 120.156 286.032 120.277C282.838 120.797 279.605 121.049 276.369 121.033ZM276.482 6.28701C272.626 6.29672 268.781 6.70007 265.006 7.49078C264.297 7.63791 263.595 7.79841 262.9 7.97229C248.636 11.4317 236.279 20.3084 228.447 32.7217C220.615 45.1351 217.923 60.1099 220.942 74.4736C223.53 87.2402 230.452 98.7196 240.535 106.967C250.618 115.215 263.242 119.723 276.268 119.728C279.466 119.727 282.658 119.461 285.811 118.933C286.534 118.812 287.243 118.679 287.925 118.538C301.702 115.728 313.944 107.899 322.274 96.5709C330.603 85.2426 334.426 71.2231 333 57.2345C331.574 43.2459 325.001 30.2862 314.557 20.8715C304.113 11.4569 290.543 6.25898 276.482 6.28701Z" fill="#264373"/>
<path d="M309.439 56.1898C308.094 49.6742 304.847 43.7037 300.109 39.0332C295.371 34.3627 289.355 31.202 282.821 29.9508C276.287 28.6996 269.528 29.4141 263.4 32.0039C257.272 34.5937 252.049 38.9425 248.393 44.5004C244.736 50.0583 242.81 56.5757 242.857 63.2285C242.904 69.8812 244.923 76.3705 248.659 81.8758C252.394 87.3812 257.678 91.6552 263.842 94.1576C270.007 96.6599 276.775 97.2781 283.29 95.9341C292.023 94.1219 299.681 88.9197 304.583 81.4688C309.485 74.0178 311.231 64.9267 309.439 56.1898Z" fill="white"/>
<path d="M317.727 69.7515C321.465 46.9533 306.013 25.4419 283.215 21.7044C260.416 17.967 238.905 33.4188 235.168 56.217C231.43 79.0152 246.882 100.527 269.68 104.264C292.478 108.001 313.99 92.5497 317.727 69.7515Z" fill="#FFC6A3"/>
<path d="M242.503 70.6683C242.346 70.6715 242.194 70.6197 242.071 70.5219C241.949 70.4242 241.865 70.2867 241.834 70.1333C239.951 60.9522 241.786 51.3989 246.938 43.5693C252.089 35.7398 260.136 30.2734 269.313 28.3694C269.491 28.333 269.675 28.3686 269.826 28.4683C269.977 28.568 270.083 28.7237 270.119 28.901C270.155 29.0784 270.12 29.263 270.02 29.4141C269.92 29.5652 269.765 29.6705 269.587 29.7069C260.759 31.5384 253.017 36.7974 248.061 44.3299C243.105 51.8623 241.339 61.0532 243.151 69.8859C243.17 69.9724 243.171 70.0618 243.155 70.1488C243.139 70.2358 243.105 70.3187 243.057 70.3928C243.008 70.4668 242.946 70.5305 242.872 70.5801C242.799 70.6297 242.717 70.6642 242.63 70.6817L242.503 70.6683Z" fill="white"/>
<path d="M277.67 84.4149C289.511 83.7529 298.574 73.617 297.912 61.7759C297.25 49.9347 287.114 40.8722 275.273 41.5342C263.431 42.1962 254.369 52.3321 255.031 64.1733C255.693 76.0144 265.829 85.0769 277.67 84.4149Z" fill="white"/>
<path d="M289.276 60.3227C288.753 57.7889 287.49 55.4671 285.647 53.651C283.805 51.8348 281.465 50.6058 278.924 50.1194C276.383 49.6331 273.755 49.9112 271.371 50.9186C268.988 51.926 266.958 53.6174 265.536 55.779C264.114 57.9405 263.365 60.4752 263.384 63.0623C263.403 65.6495 264.189 68.1729 265.642 70.3136C267.095 72.4542 269.15 74.116 271.547 75.0886C273.945 76.0612 276.577 76.301 279.111 75.7777C282.506 75.0728 285.483 73.0497 287.389 70.1523C289.295 67.2549 289.973 63.7198 289.276 60.3227Z" fill="#FFAD7A"/>
<path d="M350.039 0.635986C350.039 0.635986 347.364 8.9754 347.558 13.844C347.588 14.624 347.707 15.3981 347.912 16.1512L331.815 26.3497L332.176 16.5792L337.72 9.77791L339.76 14.3322L340.255 8.48052L350.039 0.635986ZM365.715 23.5008C365.715 23.5008 355.142 21.4946 350.815 19.2609C350.122 18.8998 349.471 18.4624 348.875 17.9568L332.778 28.1554L341.766 32.0141L351.296 29.7872L347.09 26.6039L354.874 28.2223L365.715 23.5008Z" fill="#FF9B5C"/>
<path d="M277.064 62.2755L276.93 60.5434L347.993 15.5159C348.188 15.3816 348.41 15.29 348.643 15.2473C348.876 15.2045 349.116 15.2114 349.346 15.2676C349.577 15.3238 349.793 15.4279 349.98 15.5733C350.167 15.7186 350.322 15.9019 350.434 16.1111C350.56 16.4848 350.55 16.8912 350.406 17.2584C350.261 17.6255 349.992 17.9298 349.644 18.1173L278.576 63.1382L277.064 62.2755Z" fill="#21447D"/>
<path d="M290.098 62.2554L283.377 51.8027L272.296 66.3215L290.098 62.2554Z" fill="#E97E3B"/>
<path d="M294.873 59.1857L288.145 48.733L277.071 63.2518L294.873 59.1857Z" fill="#FF9B5C"/>
<path d="M565.996 404.129L560.694 408.611L576.38 427.165L581.681 422.684L565.996 404.129Z" fill="#28487D"/>
<path d="M569.378 397.263C570.975 398.831 572.072 400.838 572.528 403.029C572.984 405.221 572.781 407.498 571.943 409.573C571.105 411.649 569.67 413.429 567.82 414.689C565.97 415.949 563.788 416.632 561.55 416.652C559.311 416.671 557.118 416.027 555.246 414.8C553.374 413.572 551.908 411.817 551.034 409.757C550.16 407.696 549.916 405.423 550.334 403.224C550.752 401.025 551.812 399 553.382 397.404C555.485 395.265 558.351 394.048 561.351 394.022C564.351 393.995 567.238 395.161 569.378 397.263Z" fill="#FFAD7A"/>
<path d="M616.233 381.108L615.799 444.947L625.536 445.013L625.97 381.175L616.233 381.108Z" fill="#28487D"/>
<path d="M673.754 526.59C702.699 497.645 702.699 450.716 673.754 421.771C644.809 392.826 597.88 392.826 568.934 421.771C539.989 450.716 539.989 497.645 568.934 526.59C597.88 555.535 644.809 555.535 673.754 526.59Z" fill="#FFAD7A"/>
<path d="M684.386 489.49C692.865 454.655 671.499 419.542 636.664 411.063C601.829 402.584 566.715 423.949 558.236 458.785C549.757 493.62 571.123 528.733 605.959 537.212C640.794 545.691 675.907 524.325 684.386 489.49Z" fill="white"/>
<path d="M625.654 529.584C625.661 528.656 625.392 527.748 624.882 526.974C624.371 526.2 623.643 525.594 622.788 525.235C621.933 524.876 620.991 524.778 620.081 524.955C619.17 525.132 618.333 525.575 617.675 526.228C617.017 526.882 616.568 527.716 616.384 528.625C616.201 529.534 616.292 530.477 616.645 531.334C616.998 532.191 617.598 532.924 618.369 533.44C619.139 533.956 620.046 534.232 620.973 534.232C622.209 534.232 623.395 533.743 624.272 532.872C625.148 532.002 625.646 530.819 625.654 529.584ZM586.773 512.55C586.783 512.009 586.633 511.478 586.341 511.022C586.048 510.567 585.627 510.209 585.131 509.994C584.634 509.779 584.085 509.716 583.553 509.813C583.021 509.911 582.53 510.164 582.142 510.542C581.754 510.919 581.487 511.403 581.375 511.932C581.263 512.462 581.311 513.013 581.513 513.515C581.715 514.017 582.061 514.447 582.508 514.752C582.956 515.057 583.483 515.221 584.024 515.225C584.742 515.231 585.433 514.953 585.948 514.452C586.462 513.952 586.759 513.268 586.773 512.55ZM659.721 508.752C659.178 508.74 658.644 508.89 658.187 509.182C657.729 509.475 657.37 509.897 657.153 510.395C656.936 510.893 656.873 511.444 656.97 511.978C657.068 512.512 657.322 513.005 657.701 513.394C658.079 513.783 658.565 514.051 659.097 514.163C659.628 514.275 660.18 514.226 660.684 514.023C661.187 513.82 661.619 513.472 661.924 513.022C662.229 512.573 662.393 512.043 662.396 511.501C662.401 510.783 662.124 510.091 661.623 509.577C661.122 509.062 660.439 508.766 659.721 508.752ZM655.922 435.81C655.92 436.35 656.077 436.878 656.374 437.328C656.672 437.778 657.096 438.13 657.593 438.339C658.09 438.548 658.638 438.605 659.168 438.503C659.697 438.401 660.185 438.144 660.568 437.765C660.952 437.386 661.215 436.902 661.324 436.373C661.432 435.845 661.382 435.296 661.179 434.797C660.976 434.297 660.629 433.869 660.183 433.566C659.736 433.263 659.21 433.099 658.671 433.095C658.312 433.093 657.956 433.161 657.624 433.296C657.291 433.431 656.989 433.63 656.733 433.883C656.478 434.135 656.275 434.435 656.136 434.766C655.997 435.097 655.924 435.452 655.922 435.81ZM582.961 439.602C583.502 439.613 584.034 439.462 584.489 439.17C584.944 438.878 585.302 438.456 585.518 437.96C585.733 437.464 585.796 436.915 585.698 436.382C585.601 435.85 585.347 435.359 584.97 434.971C584.592 434.583 584.108 434.317 583.579 434.205C583.05 434.093 582.499 434.141 581.997 434.343C581.495 434.544 581.064 434.891 580.759 435.338C580.455 435.785 580.29 436.313 580.286 436.854C580.279 437.572 580.556 438.264 581.057 438.779C581.558 439.294 582.243 439.59 582.961 439.602ZM676.748 469.877C675.822 469.877 674.917 470.152 674.147 470.666C673.377 471.18 672.777 471.911 672.423 472.767C672.068 473.622 671.976 474.563 672.156 475.472C672.337 476.38 672.783 477.214 673.437 477.868C674.092 478.523 674.926 478.969 675.834 479.15C676.742 479.33 677.684 479.238 678.539 478.883C679.394 478.529 680.126 477.929 680.64 477.159C681.154 476.389 681.429 475.484 681.429 474.558C681.429 473.317 680.936 472.126 680.058 471.248C679.18 470.37 677.989 469.877 676.748 469.877ZM617.068 418.777C617.068 419.703 617.342 420.608 617.857 421.378C618.371 422.148 619.102 422.748 619.957 423.102C620.813 423.456 621.754 423.549 622.662 423.368C623.57 423.188 624.404 422.742 625.059 422.087C625.714 421.433 626.16 420.599 626.34 419.69C626.521 418.782 626.428 417.841 626.074 416.986C625.72 416.13 625.12 415.399 624.35 414.885C623.58 414.37 622.675 414.096 621.749 414.096C620.507 414.096 619.317 414.589 618.439 415.467C617.561 416.345 617.068 417.536 617.068 418.777ZM565.948 478.484C566.875 478.491 567.783 478.222 568.558 477.711C569.332 477.201 569.937 476.472 570.296 475.617C570.656 474.763 570.753 473.82 570.577 472.91C570.4 472 569.957 471.162 569.303 470.504C568.65 469.846 567.816 469.397 566.907 469.214C565.998 469.03 565.055 469.121 564.197 469.475C563.34 469.828 562.607 470.428 562.091 471.198C561.575 471.969 561.3 472.875 561.3 473.803C561.3 475.038 561.788 476.224 562.659 477.101C563.53 477.978 564.712 478.475 565.948 478.484Z" fill="#28487D"/>
<path d="M617.462 474.15C617.457 474.899 617.674 475.632 618.085 476.258C618.497 476.883 619.084 477.372 619.774 477.664C620.464 477.955 621.224 478.035 621.959 477.895C622.695 477.754 623.372 477.398 623.905 476.872C624.438 476.347 624.803 475.675 624.954 474.942C625.106 474.208 625.036 473.447 624.754 472.753C624.473 472.06 623.992 471.465 623.372 471.045C622.753 470.624 622.023 470.397 621.274 470.392C620.271 470.387 619.306 470.779 618.592 471.484C617.877 472.188 617.471 473.147 617.462 474.15Z" fill="#666666"/>
<g style="mix-blend-mode:overlay">
<path d="M618.138 474.839C618.139 474.13 618.341 473.437 618.718 472.837C619.096 472.237 619.634 471.755 620.272 471.447C620.911 471.139 621.623 471.016 622.327 471.093C623.032 471.171 623.7 471.444 624.257 471.883C623.93 471.459 623.516 471.109 623.043 470.856C622.571 470.603 622.05 470.454 621.515 470.418C620.981 470.381 620.444 470.459 619.942 470.646C619.44 470.832 618.982 471.123 618.601 471.499C618.219 471.876 617.922 472.329 617.729 472.828C617.535 473.328 617.45 473.863 617.479 474.398C617.508 474.933 617.65 475.456 617.896 475.932C618.142 476.408 618.487 476.827 618.907 477.16C618.402 476.492 618.131 475.676 618.138 474.839Z" fill="#999999"/>
</g>
<path d="M608.053 386.443L634.021 386.623C635.741 386.629 637.393 385.954 638.618 384.746C639.843 383.539 640.542 381.896 640.561 380.176C640.566 378.455 639.891 376.801 638.682 375.576C637.473 374.351 635.829 373.653 634.107 373.636L608.14 373.462C606.42 373.457 604.768 374.131 603.544 375.339C602.32 376.547 601.624 378.189 601.606 379.909C601.599 381.629 602.273 383.282 603.481 384.506C604.689 385.73 606.333 386.427 608.053 386.443Z" fill="#28487D"/>
<path d="M608.053 386.443L634.021 386.623C635.741 386.629 637.393 385.954 638.618 384.746C639.843 383.539 640.542 381.896 640.561 380.176C640.566 378.455 639.891 376.801 638.682 375.576C637.473 374.351 635.829 373.653 634.107 373.636L608.14 373.462C606.42 373.457 604.768 374.131 603.544 375.339C602.32 376.547 601.624 378.189 601.606 379.909C601.599 381.629 602.273 383.282 603.481 384.506C604.689 385.73 606.333 386.427 608.053 386.443Z" fill="#FFAD7A"/>
<path d="M654.411 442.665C654.818 441.509 655.324 440.39 655.922 439.321C654.885 439.963 653.796 440.515 652.666 440.973C651.201 441.562 650.372 441.702 650.064 442.378C649.986 442.594 649.952 442.824 649.965 443.054C649.977 443.284 650.036 443.508 650.138 443.715L620.003 475.147L621.642 476.712L651.769 445.247C651.981 445.336 652.208 445.383 652.438 445.383C652.668 445.383 652.895 445.336 653.107 445.247C653.776 444.999 653.883 444.19 654.411 442.665Z" fill="#FC6201"/>
<path d="M621.749 475.622V472.947L593.233 472.873C593.146 472.615 593.007 472.378 592.825 472.176C592.644 471.974 592.423 471.81 592.176 471.696C591.367 471.395 590.591 471.997 588.926 472.766C587.647 473.362 586.318 473.843 584.954 474.204C586.316 474.569 587.643 475.055 588.919 475.655C590.578 476.437 591.354 477.039 592.163 476.745C592.41 476.632 592.632 476.47 592.815 476.269C592.997 476.068 593.137 475.832 593.226 475.575L621.749 475.622Z" fill="#FFAD7A"/>
<path d="M617.462 474.15C617.457 474.899 617.674 475.632 618.085 476.258C618.497 476.883 619.084 477.372 619.774 477.664C620.464 477.955 621.224 478.035 621.959 477.895C622.695 477.754 623.372 477.398 623.905 476.872C624.438 476.347 624.803 475.675 624.954 474.942C625.106 474.208 625.036 473.447 624.754 472.753C624.473 472.06 623.992 471.465 623.372 471.045C622.753 470.624 622.023 470.397 621.274 470.392C620.271 470.387 619.306 470.779 618.592 471.484C617.877 472.188 617.471 473.147 617.462 474.15Z" fill="#28487D"/>
<path d="M516.212 29.9877V110.005C516.212 111.491 515.622 112.916 514.571 113.967C513.52 115.018 512.094 115.609 510.608 115.609H415.497C414.011 115.609 412.585 115.018 411.534 113.967C410.483 112.916 409.893 111.491 409.893 110.005V29.9877C409.893 28.5014 410.483 27.076 411.534 26.025C412.585 24.974 414.011 24.3835 415.497 24.3835H510.608C511.344 24.3835 512.073 24.5285 512.753 24.8101C513.432 25.0918 514.05 25.5046 514.571 26.025C515.091 26.5454 515.504 27.1632 515.785 27.8431C516.067 28.523 516.212 29.2518 516.212 29.9877Z" fill="white"/>
<path d="M510.608 116.278H415.497C413.834 116.276 412.239 115.614 411.063 114.438C409.887 113.262 409.226 111.668 409.224 110.005V29.9878C409.226 28.3246 409.887 26.7301 411.063 25.5541C412.239 24.3781 413.834 23.7166 415.497 23.7148H510.608C512.271 23.7166 513.866 24.3781 515.042 25.5541C516.218 26.7301 516.879 28.3246 516.881 29.9878V110.005C516.879 111.668 516.218 113.262 515.042 114.438C513.866 115.614 512.271 116.276 510.608 116.278ZM415.497 25.0524C414.189 25.0541 412.934 25.5747 412.009 26.4999C411.084 27.4251 410.563 28.6794 410.562 29.9878V110.005C410.563 111.313 411.084 112.567 412.009 113.493C412.934 114.418 414.189 114.938 415.497 114.94H510.608C511.916 114.938 513.171 114.418 514.096 113.493C515.021 112.567 515.542 111.313 515.543 110.005V29.9878C515.542 28.6794 515.021 27.4251 514.096 26.4999C513.171 25.5747 511.916 25.0541 510.608 25.0524H415.497Z" fill="#264373"/>
<path d="M458.445 103.437C450.549 103.457 442.9 100.691 436.844 95.6263L458.799 72.5408L486.218 88.8585C483.125 93.3626 478.98 97.0445 474.143 99.5849C469.306 102.125 463.922 103.448 458.458 103.437H458.445ZM460.471 67.9398V36.5549C468.651 37.0404 476.372 40.4986 482.18 46.2787C487.988 52.0587 491.484 59.7623 492.01 67.9398H460.471Z" fill="#E6DBD4"/>
<path d="M472.101 73.1294H498.289C498.01 77.7997 496.745 82.3579 494.578 86.5046L472.101 73.1294Z" fill="#FFC6A3"/>
<path d="M433.888 92.8443C428.033 86.6695 424.782 78.4756 424.813 69.9661C424.835 61.4179 428.117 53.2 433.988 46.987C439.859 40.7741 447.878 37.0337 456.412 36.5282V69.1302L433.888 92.8443Z" fill="#FFAD7A"/>
<path d="M428.618 330.514H406.83V352.303H428.618V330.514Z" fill="#FFC6A3"/>
<path d="M428.618 374.432H406.83V396.22H428.618V374.432Z" fill="#FF9B5C"/>
<path d="M532.376 335.463H448.393C448.216 335.463 448.046 335.393 447.92 335.267C447.795 335.142 447.725 334.972 447.725 334.794C447.725 334.617 447.795 334.447 447.92 334.321C448.046 334.196 448.216 334.126 448.393 334.126H532.376C532.553 334.126 532.723 334.196 532.849 334.321C532.974 334.447 533.045 334.617 533.045 334.794C533.045 334.972 532.974 335.142 532.849 335.267C532.723 335.393 532.553 335.463 532.376 335.463ZM500.938 348.691H448.393C448.216 348.691 448.046 348.621 447.92 348.495C447.795 348.37 447.725 348.2 447.725 348.022C447.725 347.845 447.795 347.675 447.92 347.55C448.046 347.424 448.216 347.354 448.393 347.354H500.938C501.115 347.354 501.285 347.424 501.411 347.55C501.536 347.675 501.606 347.845 501.606 348.022C501.606 348.2 501.536 348.37 501.411 348.495C501.285 348.621 501.115 348.691 500.938 348.691ZM532.376 379.381H448.393C448.216 379.381 448.046 379.31 447.92 379.185C447.795 379.059 447.725 378.889 447.725 378.712C447.725 378.534 447.795 378.364 447.92 378.239C448.046 378.113 448.216 378.043 448.393 378.043H532.376C532.553 378.043 532.723 378.113 532.849 378.239C532.974 378.364 533.045 378.534 533.045 378.712C533.045 378.889 532.974 379.059 532.849 379.185C532.723 379.31 532.553 379.381 532.376 379.381ZM500.938 392.609H448.393C448.216 392.609 448.046 392.538 447.92 392.413C447.795 392.287 447.725 392.117 447.725 391.94C447.725 391.762 447.795 391.592 447.92 391.467C448.046 391.341 448.216 391.271 448.393 391.271H500.938C501.115 391.271 501.285 391.341 501.411 391.467C501.536 391.592 501.606 391.762 501.606 391.94C501.606 392.117 501.536 392.287 501.411 392.413C501.285 392.538 501.115 392.609 500.938 392.609Z" fill="#E0CABC"/>
<path d="M79.1986 146.893C84.1528 147.375 88.8887 149.17 92.9177 152.093C96.9466 155.016 100.123 158.961 102.118 163.521C104.114 168.082 104.856 173.091 104.27 178.034C103.683 182.977 101.788 187.674 98.7798 191.64L100.539 205.898L86.381 200.902C82.4386 202.392 78.2105 202.972 74.0125 202.598C69.8146 202.225 65.7553 200.908 62.1379 198.745C58.5205 196.583 55.4385 193.631 53.1221 190.11C50.8057 186.589 49.3147 182.59 48.7607 178.412C48.2066 174.234 48.6037 169.985 49.9224 165.982C51.241 161.979 53.4471 158.326 56.3758 155.295C59.3045 152.264 62.8801 149.935 66.8356 148.48C70.7911 147.025 75.0241 146.483 79.2186 146.893H79.1986Z" fill="#FF9B5C"/>
<path d="M75.8414 197.933C71.3546 197.93 66.9648 196.626 63.2039 194.18C59.443 191.733 56.4723 188.248 54.6518 184.147C52.8313 180.046 52.239 175.505 52.9467 171.074C53.6544 166.644 55.6318 162.513 58.6392 159.184C61.6467 155.854 65.5552 153.468 69.8912 152.314C74.2272 151.161 78.8047 151.289 83.0691 152.685C87.3335 154.08 91.1019 156.682 93.9176 160.175C96.7334 163.668 98.4758 167.903 98.9336 172.366C98.9504 172.543 98.8964 172.719 98.7836 172.855C98.6707 172.992 98.5082 173.078 98.3317 173.095C98.1563 173.112 97.9814 173.059 97.8449 172.948C97.7084 172.836 97.6214 172.675 97.6028 172.5C97.1609 168.199 95.4535 164.125 92.6965 160.795C89.9396 157.464 86.2568 155.025 82.114 153.788C77.9712 152.55 73.5544 152.568 69.4221 153.841C65.2897 155.113 61.6275 157.582 58.8985 160.936C56.1695 164.29 54.4963 168.378 54.0904 172.682C53.6845 176.987 54.5642 181.315 56.6183 185.12C58.6723 188.925 61.8084 192.035 65.6301 194.057C69.4517 196.08 73.7873 196.923 78.0884 196.482C78.2658 196.463 78.4433 196.516 78.5819 196.628C78.7205 196.74 78.8088 196.903 78.8274 197.08C78.846 197.258 78.7934 197.435 78.6812 197.574C78.5689 197.712 78.4062 197.801 78.2289 197.819C77.4264 197.895 76.6305 197.933 75.8414 197.933Z" fill="white"/>
<path d="M92.0923 162.643C83.8465 166.441 77.2392 172.467 71.441 179.061C68.2719 177.033 64.8702 175.394 61.3093 174.179L61.0151 174.486C64.2452 177.382 69.5016 184.866 72.8387 187.728C79.3859 181.04 86.0868 169.792 92.4133 162.924L92.0923 162.643Z" fill="white"/>
<path d="M67.7762 124.029C67.659 124.029 67.5437 123.999 67.4418 123.942L9.83496 90.4168C9.74969 90.3783 9.67346 90.3223 9.61119 90.2524C9.54892 90.1826 9.502 90.1005 9.47347 90.0113C9.44494 89.9222 9.43542 89.8281 9.44554 89.7351C9.45567 89.642 9.4852 89.5522 9.53224 89.4713C9.57927 89.3904 9.64275 89.3203 9.71859 89.2654C9.79442 89.2106 9.88092 89.1723 9.97248 89.153C10.064 89.1337 10.1586 89.1339 10.2501 89.1534C10.3417 89.173 10.428 89.2115 10.5037 89.2666L68.0838 122.758C68.2093 122.832 68.3071 122.946 68.3621 123.081C68.4171 123.216 68.4263 123.366 68.3884 123.507C68.3505 123.648 68.2676 123.772 68.1522 123.862C68.0368 123.951 67.8954 124 67.7494 124.002L67.7762 124.029ZM68.0169 109.383C67.8998 109.384 67.7845 109.354 67.6826 109.296L24.0929 83.9433C23.9473 83.8507 23.8431 83.7055 23.8021 83.538C23.7611 83.3704 23.7863 83.1935 23.8727 83.0442C23.959 82.8949 24.0997 82.7847 24.2653 82.7366C24.431 82.6885 24.6088 82.7063 24.7617 82.7863L68.3513 108.139C68.4274 108.183 68.494 108.242 68.5473 108.312C68.6006 108.382 68.6395 108.462 68.6619 108.547C68.6842 108.632 68.6896 108.721 68.6776 108.808C68.6656 108.895 68.6366 108.979 68.5921 109.055C68.5329 109.155 68.4487 109.238 68.3479 109.295C68.247 109.353 68.133 109.383 68.0169 109.383ZM68.2176 94.737C68.1004 94.7378 67.9851 94.7078 67.8832 94.6501L38.2906 77.4362C38.2146 77.392 38.148 77.3331 38.0947 77.2631C38.0414 77.1931 38.0024 77.1132 37.9801 77.0281C37.9577 76.943 37.9523 76.8543 37.9643 76.7671C37.9763 76.6799 38.0054 76.596 38.0499 76.52C38.1392 76.3682 38.2848 76.2577 38.4551 76.2127C38.6254 76.1676 38.8066 76.1915 38.9594 76.2793L68.5586 93.4931C68.6846 93.5679 68.7826 93.682 68.8375 93.8178C68.8923 93.9537 68.9011 94.1038 68.8623 94.2451C68.8236 94.3864 68.7395 94.5111 68.623 94.5999C68.5065 94.6888 68.3641 94.737 68.2176 94.737ZM68.4449 80.0979C68.3252 80.096 68.2078 80.0638 68.1039 80.0043L52.5017 70.9292C52.3562 70.8367 52.252 70.6915 52.211 70.5239C52.1699 70.3564 52.1952 70.1795 52.2815 70.0302C52.3678 69.8808 52.5085 69.7706 52.6742 69.7226C52.8398 69.6745 53.0177 69.6923 53.1705 69.7723L68.7726 78.8473C68.9015 78.9203 69.0024 79.034 69.0597 79.1706C69.1169 79.3071 69.1272 79.4588 69.089 79.6019C69.0507 79.7449 68.9661 79.8713 68.8483 79.961C68.7306 80.0508 68.5863 80.0989 68.4383 80.0979H68.4449ZM68.6857 65.4521C68.5679 65.4509 68.4526 65.4186 68.3513 65.3584L66.7396 64.4222C66.6635 64.3779 66.5969 64.3191 66.5436 64.2491C66.4904 64.179 66.4514 64.0992 66.429 64.0141C66.4067 63.9289 66.4013 63.8403 66.4133 63.7531C66.4253 63.6659 66.4543 63.5819 66.4988 63.506C66.5431 63.4299 66.6019 63.3633 66.672 63.31C66.742 63.2567 66.8219 63.2178 66.907 63.1954C66.9921 63.1731 67.0808 63.1677 67.168 63.1797C67.2552 63.1917 67.3391 63.2207 67.4151 63.2652L69.0201 64.2015C69.1489 64.2745 69.2499 64.3882 69.3071 64.5248C69.3644 64.6613 69.3747 64.813 69.3364 64.9561C69.2982 65.0991 69.2135 65.2254 69.0958 65.3152C68.978 65.405 68.8338 65.4531 68.6857 65.4521ZM745.469 380.156C743.674 380.176 741.929 379.563 740.54 378.424C739.374 377.46 737.908 376.932 736.394 376.932C734.88 376.932 733.414 377.46 732.248 378.424C730.852 379.546 729.116 380.157 727.326 380.157C725.535 380.157 723.799 379.546 722.404 378.424C721.237 377.46 719.771 376.932 718.257 376.932C716.744 376.932 715.277 377.46 714.111 378.424C712.715 379.546 710.979 380.157 709.189 380.157C707.399 380.157 705.662 379.546 704.267 378.424C703.114 377.436 701.639 376.905 700.121 376.933C699.943 376.933 699.773 376.863 699.648 376.737C699.522 376.612 699.452 376.442 699.452 376.264C699.452 376.087 699.522 375.917 699.648 375.791C699.773 375.666 699.943 375.595 700.121 375.595C701.916 375.573 703.66 376.189 705.043 377.334C706.211 378.294 707.677 378.818 709.189 378.818C710.701 378.818 712.166 378.294 713.335 377.334C714.729 376.21 716.466 375.596 718.257 375.596C720.048 375.596 721.785 376.21 723.179 377.334C724.348 378.294 725.813 378.818 727.326 378.818C728.838 378.818 730.303 378.294 731.472 377.334C732.866 376.21 734.603 375.596 736.394 375.596C738.185 375.596 739.922 376.21 741.316 377.334C742.486 378.294 743.952 378.819 745.466 378.819C746.979 378.819 748.446 378.294 749.615 377.334C750.998 376.189 752.742 375.573 754.537 375.595C754.715 375.595 754.885 375.666 755.01 375.791C755.136 375.917 755.206 376.087 755.206 376.264C755.206 376.442 755.136 376.612 755.01 376.737C754.885 376.863 754.715 376.933 754.537 376.933C753.019 376.905 751.544 377.436 750.391 378.424C749.006 379.565 747.263 380.178 745.469 380.156ZM745.469 397.644C743.674 397.664 741.929 397.051 740.54 395.912C739.374 394.948 737.908 394.42 736.394 394.42C734.88 394.42 733.414 394.948 732.248 395.912C730.852 397.034 729.116 397.645 727.326 397.645C725.535 397.645 723.799 397.034 722.404 395.912C721.237 394.948 719.771 394.42 718.257 394.42C716.744 394.42 715.277 394.948 714.111 395.912C712.715 397.034 710.979 397.645 709.189 397.645C707.399 397.645 705.662 397.034 704.267 395.912C703.114 394.924 701.639 394.393 700.121 394.421C699.943 394.421 699.773 394.351 699.648 394.225C699.522 394.1 699.452 393.93 699.452 393.752C699.452 393.575 699.522 393.405 699.648 393.279C699.773 393.154 699.943 393.084 700.121 393.084C701.916 393.061 703.66 393.677 705.043 394.822C706.211 395.782 707.677 396.306 709.189 396.306C710.701 396.306 712.166 395.782 713.335 394.822C714.729 393.698 716.466 393.084 718.257 393.084C720.048 393.084 721.785 393.698 723.179 394.822C724.348 395.782 725.813 396.306 727.326 396.306C728.838 396.306 730.303 395.782 731.472 394.822C732.866 393.698 734.603 393.084 736.394 393.084C738.185 393.084 739.922 393.698 741.316 394.822C742.486 395.782 743.952 396.307 745.466 396.307C746.979 396.307 748.446 395.782 749.615 394.822C750.998 393.677 752.742 393.061 754.537 393.084C754.715 393.084 754.885 393.154 755.01 393.279C755.136 393.405 755.206 393.575 755.206 393.752C755.206 393.93 755.136 394.1 755.01 394.225C754.885 394.351 754.715 394.421 754.537 394.421C753.019 394.393 751.544 394.924 750.391 395.912C749.006 397.053 747.263 397.666 745.469 397.644Z" fill="#E0CABC"/>
<path d="M747.709 446.517C747.981 446.961 748.146 447.462 748.193 447.981C748.24 448.499 748.167 449.021 747.98 449.507C747.792 449.993 747.495 450.429 747.112 450.781C746.729 451.134 746.269 451.393 745.77 451.54L734.401 454.883C733.83 455.049 733.225 455.062 732.648 454.92C732.07 454.779 731.54 454.488 731.11 454.076C730.681 453.665 730.367 453.148 730.2 452.577C730.034 452.006 730.02 451.402 730.161 450.824L732.97 439.348C733.112 438.771 733.403 438.242 733.814 437.813C734.225 437.384 734.741 437.07 735.311 436.904C735.882 436.737 736.486 436.723 737.063 436.863C737.64 437.004 738.171 437.293 738.601 437.703L747.134 445.875C747.352 446.064 747.545 446.28 747.709 446.517ZM733.525 451.078C733.552 451.125 733.586 451.168 733.625 451.205C733.702 451.277 733.795 451.328 733.897 451.353C734 451.377 734.106 451.375 734.207 451.346L743.73 448.564C743.833 448.537 743.926 448.482 744 448.405C744.073 448.329 744.123 448.233 744.145 448.129C744.172 448.027 744.17 447.919 744.141 447.818C744.111 447.717 744.055 447.625 743.978 447.554L736.809 440.692C736.733 440.62 736.639 440.568 736.537 440.544C736.434 440.519 736.328 440.522 736.227 440.552C736.124 440.579 736.031 440.634 735.958 440.711C735.885 440.787 735.834 440.883 735.812 440.987L733.431 450.623C733.414 450.701 733.413 450.782 733.43 450.861C733.446 450.939 733.478 451.013 733.525 451.078Z" fill="#D99F7A"/>
<path d="M42.136 268.574L45.9613 264.749C46.1681 264.542 46.3321 264.296 46.4441 264.026C46.556 263.756 46.6136 263.466 46.6136 263.174C46.6136 262.881 46.556 262.592 46.4441 262.321C46.3321 262.051 46.1681 261.806 45.9613 261.599C45.7544 261.392 45.5089 261.228 45.2387 261.116C44.9685 261.004 44.6788 260.947 44.3863 260.947C44.0938 260.947 43.8042 261.004 43.534 261.116C43.2638 261.228 43.0182 261.392 42.8114 261.599L38.9861 265.431L35.1541 261.619C34.7307 261.231 34.174 261.022 33.6 261.035C33.0261 261.048 32.4793 261.282 32.0737 261.688C31.6682 262.095 31.4353 262.642 31.4236 263.216C31.4119 263.79 31.6223 264.346 32.011 264.769L35.8363 268.594L32.0177 272.419C31.629 272.842 31.4186 273.398 31.4303 273.972C31.442 274.546 31.6749 275.094 32.0804 275.5C32.4859 275.906 33.0327 276.14 33.6067 276.153C34.1807 276.166 34.7374 275.957 35.1608 275.569L38.9861 271.744L42.8047 275.569C43.2224 275.987 43.7889 276.222 44.3797 276.222C44.9704 276.222 45.5369 275.987 45.9546 275.569C46.3723 275.152 46.6069 274.585 46.6069 273.994C46.6069 273.404 46.3723 272.837 45.9546 272.419L42.136 268.574Z" fill="#FFAD7A"/>
<path d="M705.344 95.2586C703.407 95.0901 701.564 94.3511 700.047 93.1351C698.53 91.9191 697.408 90.2806 696.822 88.4269C696.236 86.5732 696.213 84.5875 696.756 82.7207C697.299 80.8539 698.383 79.1899 699.871 77.9391C701.359 76.6883 703.185 75.9069 705.117 75.6935C707.049 75.4802 709.002 75.8446 710.727 76.7406C712.452 77.6366 713.873 79.024 714.81 80.7274C715.747 82.4309 716.157 84.3738 715.99 86.3107C715.762 88.908 714.513 91.3089 712.517 92.9865C710.521 94.664 707.941 95.4812 705.344 95.2586ZM706.728 79.282C705.505 79.1769 704.279 79.4366 703.204 80.0283C702.129 80.62 701.253 81.5172 700.688 82.6064C700.122 83.6957 699.893 84.928 700.028 86.1478C700.163 87.3675 700.656 88.5199 701.446 89.4592C702.236 90.3985 703.286 91.0825 704.465 91.4249C705.643 91.7673 706.897 91.7526 708.067 91.3827C709.237 91.0128 710.271 90.3043 711.039 89.3468C711.806 88.3892 712.273 87.2256 712.379 86.003C712.52 84.3637 712.005 82.7353 710.947 81.4753C709.888 80.2153 708.374 79.4265 706.735 79.282H706.728Z" fill="#FF9B5C"/>
</svg>
